<?xml version="1.0" encoding="utf-8"?>
<!-- Generator: Adobe Illustrator 23.0.1, SVG Export Plug-In . SVG Version: 6.00 Build 0)  -->
<svg version="1.1"
	 id="Coat_of_Arms_of_Morocco" xmlns:cc="http://creativecommons.org/ns#" xmlns:dc="http://purl.org/dc/elements/1.1/" xmlns:inkscape="http://www.inkscape.org/namespaces/inkscape" xmlns:rdf="http://www.w3.org/1999/02/22-rdf-syntax-ns#" xmlns:sodipodi="http://sodipodi.sourceforge.net/DTD/sodipodi-0.dtd" xmlns:svg="http://www.w3.org/2000/svg"
	 xmlns="http://www.w3.org/2000/svg" xmlns:xlink="http://www.w3.org/1999/xlink" x="0px" y="0px" viewBox="1.3 -4.6 553.8 609.4"
	 enable-background="new 1.3 -4.6 553.8 609.4" xml:space="preserve">
<sodipodi:namedview  bordercolor="#666666" borderopacity="1" gridtolerance="10" guidetolerance="10" id="namedview374" inkscape:current-layer="Coat_of_Arms_of_Morocco" inkscape:cx="280.61323" inkscape:cy="274.78767" inkscape:guide-bbox="true" inkscape:pageopacity="0" inkscape:pageshadow="2" inkscape:window-height="740" inkscape:window-maximized="1" inkscape:window-width="1292" inkscape:window-x="66" inkscape:window-y="-8" inkscape:zoom="0.75" objecttolerance="10" pagecolor="#ffffff" showgrid="false" showguides="true">
	</sodipodi:namedview>
<g id="g5805" transform="matrix(0.962194, 0, 0, 0.949626, 32.7837, -2.88947)">
</g>
<g id="g5809" transform="matrix(0.962167, 0, 0, 0.949625, 42.7322, 14.4143)">
</g>
<g id="g5481" transform="translate(69.504)">
</g>
<g>
	<g>
		<path fill="#F05F25" d="M194.4,232.1v40l47.4,28.4l27.9-19.8c0,0,0-3.7-6.8-8.1L194.4,232.1z"/>
		<path fill="#19A2DC" d="M195,368.1V326l74.7-45.3l0.6,39.5c0,0,0.4,1.5-5.6,5.2L195,368.1z"/>
	</g>
	<rect x="88.1" y="270.1" width="15.6" height="59.8"/>
	<polygon points="153.4,270.1 153.4,293.9 131.1,293.9 131.1,270.1 115.5,270.1 115.5,329.9 131.1,329.9 131.1,302.9 153.4,302.9 
		153.4,329.9 169,329.9 169,270.1 	"/>
	<path d="M54.6,330.3c-6.1,0-11.4-2.1-15.3-6.1c-8.1-8.3-8.1-22.3-8-25C30.2,271.6,54.4,270,54.6,270l0.3,0l26,0v11.5H55.1
		c-1.2,0.1-4.4,0.6-7.3,3c-3.7,3-5.4,7.9-5.1,14.6l0,0.2l0,0.3c-0.2,4.2,0.7,12.5,4.7,16.7c1.7,1.8,4,2.7,6.9,2.7v0h0.5l0.5,0v0H81
		v11.5H55C54.8,330.3,54.7,330.3,54.6,330.3z"/>
	<g>
		<path d="M514.8,285l-10.3,11c0,0,9.7,15.7,10.3,18.5c0.6-0.9-72.7,0-72.7,0s-4.4-19.4-13.5-29.5l-7.5,12.9
			c0,0,11.3,13.8,11.3,16.6c0,0.3-63,0-63,0s-12.5-17.9-28.8-30.7c0,0-3.6-2.1,0-3.4c0.3,0.3,27.3-18.2,27.3-18.2l2.5-14.7
			c0,0-33.2,19.1-41.7,28.8c-0.6,0.7-8.9,6,6.6,16.6c0.6,0.3,21.6,19.7,23.5,21.8c0.3,0.5-50.5,0-50.5,0s-12.5-4.8,5-22.7
			c-0.3,0-2.8-3.8-2.8-3.8s-34.1,23.7-6.5,38.6c-1,0,215.7,0,215.7,0s9.7,0,3.8-17.9C523.3,309.1,518,289.1,514.8,285z"/>
		<rect x="420.2" y="267.7" transform="matrix(0.7071 -0.7071 0.7071 0.7071 -69.1185 382.4103)" width="13.8" height="13.8"/>
		<rect x="496.3" y="334.3" transform="matrix(0.7071 -0.7071 0.7071 0.7071 -93.8627 455.7762)" width="13.8" height="13.8"/>
	</g>
</g>
</svg>
