<svg width="2560" height="680" viewBox="0 0 2560 680" xmlns="http://www.w3.org/2000/svg">
    <path opacity=".65" fill="#e1f0fb" d="M2559.9 296.1c-44.7 4.5-128.7-6.4-259.1-75.6-130.4-69.2-318.5-242.4-553.3-218.3-63.4 6.5-117.4 20.8-165 40.5-14.7 1.4-29.9 3.2-45.7 5.4-202.4 27.4-292.2 123.7-502.3 286.9-100.9 78.5-243.6 131.2-416 157.9-143-17.4-290.7-53-384.8-49.7-98.5 3.4-178.4 22.5-233.7 37.2v146.2c119.1-1.1 265.1-7.2 410.3-14.1 267.8 33.1 479.3 52.8 616.3 51.2 80.7-1 185.6-18.5 289.5-37.6 52.1 8.3 98.4 16.3 132.2 22 86.9 14.5 342.4 31.9 445.9 31.9 237.8 0 464.8-22.9 665.9-59.3-.2-56.8-.2-120.3-.2-324.6z"/>
    <path fill="#e1f0fb" d="M997.4 590.8c97.2 2.6 218.8 19.4 318.7 35.3 104.7-19.3 208.3-40.3 284.8-47.8 326.2-32.2 418.3 28.1 628.4 38.2 130 6.2 224.2 2 330.7-18.3V437.4c-102.5-8.7-296.6-43.5-445.8-170.4-228.1-194-332.6-243.5-531.7-224.2-283.9 117.9-340.2 431.6-791.8 458.3-53.8 3.2-112.6-.9-172.2-8.2-178.7 27.7-389.3 27.4-618.5-1.2v66.5c147.8 20.5 285.2 38.8 410.3 54.3 239.1-11.3 476.1-24.7 587.1-21.7z"/>
</svg>
