<svg width="400" height="526" viewBox="0 0 400 526" fill="none" xmlns="http://www.w3.org/2000/svg">
<path d="M156.957 322.247C157.394 320.898 157.65 319.404 157.705 317.871C157.761 316.338 157.615 314.804 157.279 313.375C156.943 311.947 156.423 310.66 155.758 309.604C155.093 308.549 154.298 307.751 153.428 307.266L152.396 283.325L143.564 280.829L145.306 314.604C144.917 317.106 145.089 319.76 145.79 322.063C146.49 324.366 147.67 326.159 149.106 327.101C150.543 328.043 152.135 328.07 153.582 327.175C155.029 326.28 156.23 324.527 156.957 322.247H156.957Z" fill="#A0616A"/>
<path d="M183.658 511.944L191.85 511.943L195.748 458.971L183.657 458.972L183.658 511.944Z" fill="#A0616A"/>
<path d="M181.569 507.46L197.702 507.459H197.702C200.429 507.459 203.044 509.275 204.972 512.507C206.9 515.74 207.983 520.123 207.984 524.695V525.255L181.569 525.256L181.569 507.46Z" fill="#2F2E41"/>
<path d="M156.93 511.944L165.122 511.943L169.019 458.971L156.929 458.972L156.93 511.944Z" fill="#A0616A"/>
<path d="M154.841 507.46L170.974 507.459H170.974C173.701 507.459 176.316 509.275 178.244 512.507C180.172 515.74 181.255 520.123 181.256 524.695V525.255L154.841 525.256L154.841 507.46Z" fill="#2F2E41"/>
<path d="M154.781 279.841L150.773 317.8L156.118 494.791H168.148L174.79 407.735L177.5 341.324L181.775 494.791L194.205 496.295L201.394 408.33L203.226 320.6L201.295 279.841H154.781Z" fill="#2F2E41"/>
<path d="M171.152 163.773L189.194 169.374L194.205 277.473C194.205 277.473 172.155 294.276 164.136 279.713C156.118 265.151 171.152 163.773 171.152 163.773Z" fill="#CCCCCC"/>
<path d="M206.233 185.617L189.194 169.374L186.855 243.867C186.855 243.867 186.187 331.242 199.551 331.242L209.574 325.641L204.228 252.828L206.233 185.617Z" fill="#2F2E41"/>
<path d="M150.772 178.896L171.152 163.773L173.491 229.304C173.491 229.304 180.173 316.68 158.791 320.04C158.791 320.04 152.777 321.16 150.104 313.319L154.113 248.348L150.772 178.896Z" fill="#2F2E41"/>
<path d="M154.781 182.256L150.772 178.896C150.772 178.896 148.768 178.896 148.099 181.136C147.431 183.376 139.073 248.348 139.073 248.348L144.188 309.013L154.113 300.997L152.048 250.308L154.781 182.256Z" fill="#2F2E41"/>
<path d="M198.947 329.929C198.448 328.642 198.123 327.187 197.995 325.666C197.867 324.146 197.94 322.596 198.208 321.128C198.476 319.66 198.933 318.308 199.547 317.167C200.16 316.027 200.915 315.126 201.759 314.528L201.66 290.525L210.346 286.867L210.202 320.767C210.707 323.209 210.661 325.878 210.071 328.267C209.481 330.656 208.389 332.599 207.002 333.728C205.615 334.858 204.029 335.095 202.544 334.395C201.06 333.694 199.78 332.106 198.947 329.929H198.947Z" fill="#A0616A"/>
<path d="M198.883 186.737L206.233 185.617C206.233 185.617 208.906 187.231 209.574 200.986C210.242 214.742 210.242 249.252 210.242 249.252L212.247 311.079H200.887L197.546 248.348L198.883 186.737Z" fill="#2F2E41"/>
<path d="M182.399 154.445C191.069 154.445 198.098 142.662 198.098 128.127C198.098 113.592 191.069 101.809 182.399 101.809C173.729 101.809 166.7 113.592 166.7 128.127C166.7 142.662 173.729 154.445 182.399 154.445Z" fill="#A0616A"/>
<path d="M180.059 133.498L179.841 127.248C179.791 125.791 180.059 123.762 180.927 123.867C181.665 123.956 183.309 124.439 183.527 124.05C184.344 122.591 186.029 124.08 186.91 122.731C187.28 122.165 187.444 121.168 187.926 120.941C188.258 120.864 188.595 120.994 188.875 121.305C189.641 122.032 190.494 122.47 191.372 122.586C191.812 122.634 192.251 122.484 192.644 122.152C193.037 121.82 193.37 121.317 193.609 120.696C193.681 120.384 193.797 120.105 193.946 119.881C194.132 119.717 194.346 119.661 194.553 119.722L197.259 120.018C197.358 117.597 197.144 115.168 196.632 112.899C196.12 110.629 195.321 108.572 194.291 106.867C192.963 104.855 191.451 103.215 189.812 102.009C187.978 100.526 186.108 99.1798 184.202 97.9715C182.115 96.6438 179.929 95.4652 177.7 95.6523C175.471 95.8393 173.169 97.65 172.157 100.985C171.423 100.427 170.81 99.5023 170.402 98.3371C170.278 98.6218 170.193 98.9487 170.152 99.2948C170.111 99.6408 170.116 99.9977 170.167 100.34C170.217 100.682 170.312 101.002 170.445 101.276C170.577 101.551 170.744 101.773 170.933 101.927L168.482 100.345C168.003 101.626 169.43 103.166 169.056 104.542C168.935 104.892 168.76 105.182 168.55 105.381C167.466 106.552 166.525 108.058 165.777 109.82C164.785 112.341 164.453 115.416 164.211 118.408C163.673 125.064 163.599 132.512 166.141 137.704C166.43 138.293 170.498 148.242 170.916 148.542C172.327 149.555 171.1 146.357 172.234 148.092C173.124 149.453 172.251 143.381 173.448 144.371C173.912 144.719 174.426 144.834 174.928 144.701C175.43 144.569 175.899 144.196 176.277 143.626C176.645 142.982 176.171 140.263 175.632 137.802C175.529 137.333 175.496 136.829 175.537 136.334C175.577 135.839 175.689 135.369 175.863 134.963C176.037 134.558 176.268 134.23 176.535 134.009C176.802 133.788 177.097 133.68 177.395 133.695C178.744 133.763 180.068 133.763 180.059 133.498Z" fill="#2F2E41"/>
<path d="M246.524 526H114.795C114.653 526 114.518 525.906 114.418 525.738C114.318 525.57 114.261 525.343 114.261 525.106C114.261 524.869 114.318 524.641 114.418 524.474C114.518 524.306 114.653 524.212 114.795 524.212H246.524C246.665 524.212 246.801 524.306 246.901 524.474C247.001 524.641 247.057 524.869 247.057 525.106C247.057 525.343 247.001 525.57 246.901 525.738C246.801 525.906 246.665 526 246.524 526Z" fill="#CCCCCC"/>
</svg>
